<svg xmlns="http://www.w3.org/2000/svg" xmlns:xlink="http://www.w3.org/1999/xlink" width="800" height="600" viewBox="585 224 209 324" version="1.0">
  <defs>
    <clipPath id="dd0086d615">
      <path d="M 585.917969 224.027344 L 794.417969 224.027344 L 794.417969 548 L 585.917969 548 Z M 585.917969 224.027344 " clip-rule="nonzero"/>
    </clipPath>
  </defs>
  <g clip-path="url(#dd0086d615)">
    <path fill="#000000" d="M 739.753906 283.992188 C 739.753906 284.035156 739.753906 284.035156 739.753906 284.074219 C 738.503906 291.605469 737.941406 300.105469 735.644531 306.996094 C 732.625 315.976562 728.394531 324.074219 723.359375 331.566406 C 723.359375 330.558594 723.199219 329.511719 722.835938 328.34375 C 723.15625 326.128906 723.921875 323.871094 724.726562 321.777344 C 726.097656 318.234375 726.136719 311.386719 726.058594 307.519531 C 725.816406 295.835938 719.933594 285.726562 714.859375 275.617188 C 712.160156 270.257812 707.769531 266.148438 704.183594 261.597656 C 704.105469 261.476562 703.582031 260.75 703.175781 260.308594 C 702.9375 260.027344 702.652344 259.785156 702.535156 259.703125 C 702.128906 259.503906 701.808594 259.625 701.605469 259.785156 C 701.605469 259.785156 701.203125 260.066406 701.324219 260.589844 C 701.363281 260.710938 701.527344 261.355469 701.527344 261.394531 C 701.6875 262.121094 701.648438 262.96875 701.527344 263.691406 C 700.921875 268.648438 701.042969 273.359375 701.285156 278.355469 C 701.605469 285.445312 703.820312 293.621094 707.164062 299.945312 C 709.785156 304.941406 712.160156 310.21875 714.578125 315.375 C 716.269531 319 719.8125 324.277344 721.222656 328.546875 C 721.0625 329.996094 721.0625 331.445312 721.34375 332.816406 C 721.386719 333.015625 721.503906 333.175781 721.625 333.296875 C 721.546875 333.742188 721.425781 334.144531 721.304688 334.585938 C 717.277344 340.265625 712.84375 345.625 708.171875 350.902344 C 701.125 358.878906 693.632812 366.570312 686.378906 374.667969 C 686.378906 374.144531 686.378906 373.660156 686.421875 373.136719 C 686.621094 371.121094 686.78125 369.230469 686.863281 367.296875 L 686.863281 367.253906 C 686.945312 365.5625 686.984375 363.871094 686.902344 362.101562 C 686.542969 350.136719 684.003906 338.453125 679.734375 327.335938 C 676.148438 318.113281 669.179688 310.621094 661.445312 304.496094 C 658.867188 302.441406 656.046875 300.507812 652.988281 299.382812 C 651.777344 298.9375 650.449219 298.816406 649.363281 298.292969 C 649 298.132812 648.71875 298.253906 648.636719 298.335938 C 648.394531 298.453125 648.234375 298.695312 648.234375 299.019531 C 648.234375 299.058594 648.234375 299.339844 648.515625 299.625 C 648.878906 300.027344 650.449219 301.558594 651.777344 303.449219 C 652.625 304.660156 653.347656 306.027344 653.550781 307.316406 C 654.597656 313.84375 655.402344 320.648438 657.78125 326.773438 C 658.0625 327.457031 658.183594 328.382812 658.304688 329.269531 C 658.464844 330.316406 658.667969 331.363281 659.070312 332.128906 C 660.359375 334.667969 661.285156 337.527344 662.453125 340.105469 C 664.789062 345.261719 668.777344 348.121094 672.320312 352.390625 C 673.289062 353.519531 675.464844 355.65625 676.472656 356.824219 C 678.242188 358.957031 679.816406 360.046875 681.183594 361.011719 C 683.035156 362.339844 684.445312 363.507812 685.375 367.296875 C 685.292969 369.148438 685.132812 371.042969 684.929688 372.976562 C 684.890625 373.257812 684.890625 373.578125 684.890625 373.902344 C 684.40625 372.894531 683.84375 371.929688 683.480469 371.203125 C 678.042969 360.527344 672.644531 358.515625 662.050781 354.527344 C 660.800781 354.042969 658.910156 353.800781 657.578125 353.679688 C 657.335938 353.640625 656.855469 353.4375 656.855469 353.4375 C 656.492188 353.277344 656.046875 353.4375 655.847656 353.800781 C 655.644531 354.164062 655.765625 354.609375 656.128906 354.808594 C 656.128906 354.808594 657.621094 355.695312 658.101562 356.378906 C 659.433594 358.273438 660.398438 360.691406 661.488281 362.984375 C 662.65625 365.441406 663.945312 367.78125 665.835938 369.351562 C 667.972656 371.164062 670.832031 371.082031 673.53125 370.761719 C 674.777344 370.597656 675.988281 370.398438 677.035156 370.359375 C 677.960938 370.316406 678.765625 370.359375 679.371094 370.761719 C 681.144531 371.847656 682.675781 372.410156 683.761719 375.3125 C 683.84375 375.472656 683.84375 375.996094 683.921875 376.480469 C 683.964844 376.761719 684.042969 377.042969 684.125 377.246094 C 680.257812 381.636719 676.472656 386.148438 672.925781 390.902344 C 664.023438 402.742188 656.089844 419.339844 650.289062 435.574219 C 650.085938 432.671875 650.890625 429.570312 651.253906 426.710938 C 653.027344 412.210938 654.757812 400.164062 647.589844 386.589844 C 643.84375 379.5 636.390625 375.070312 630.390625 370.558594 C 628.375 369.070312 625.878906 367.335938 624.144531 366.492188 C 623.582031 366.207031 623.179688 366.046875 622.613281 365.523438 C 622.492188 365.402344 621.769531 364.960938 621.203125 364.757812 C 620.882812 364.636719 620.601562 364.597656 620.441406 364.597656 C 620.277344 364.558594 620.078125 364.515625 619.914062 364.597656 C 619.511719 364.757812 619.3125 365.203125 619.433594 365.605469 C 619.796875 366.691406 621.003906 367.78125 622.132812 369.027344 C 623.058594 370.074219 623.945312 371.203125 623.984375 372.652344 C 624.023438 374.628906 624.832031 376.800781 625.191406 378.734375 C 626.84375 388 625.878906 397.425781 630.628906 406.007812 C 632.765625 409.875 636.351562 413.015625 639.492188 416.035156 C 644.527344 420.871094 646.742188 428.160156 648.03125 434.648438 C 648.195312 435.492188 648.394531 439.277344 648.355469 441.171875 C 646.140625 447.859375 644.328125 454.382812 642.996094 460.347656 C 640.941406 469.609375 641.183594 478.875 639.894531 488.101562 C 639.816406 488.542969 639.773438 489.027344 639.734375 489.46875 C 639.652344 489.027344 639.574219 488.582031 639.53125 488.140625 C 639.53125 488.019531 639.492188 487.898438 639.492188 487.777344 C 639.652344 487.617188 639.734375 487.414062 639.695312 487.175781 C 639.574219 485.964844 639.292969 484.835938 638.929688 483.832031 C 638.164062 479.640625 636.953125 475.371094 635.546875 471.464844 C 633.085938 464.574219 629.261719 458.332031 624.789062 452.613281 C 623.257812 450.679688 622.253906 448.222656 620.722656 446.328125 C 616.691406 441.171875 612.300781 437.304688 607.148438 433.4375 C 604.648438 431.585938 601.425781 430.257812 598.285156 428.886719 C 595.304688 427.597656 592.402344 426.269531 590.429688 424.375 C 589.464844 423.449219 587.085938 422.28125 587.085938 422.28125 C 586.765625 422.121094 586.320312 422.199219 586.121094 422.523438 C 585.917969 422.84375 585.957031 423.246094 586.199219 423.527344 C 586.199219 423.527344 586.84375 424.171875 587.167969 424.457031 C 590.1875 427.355469 591.636719 431.0625 593.007812 434.886719 C 596.269531 444.03125 600.136719 452.894531 606.621094 460.265625 C 610.085938 464.214844 613.953125 468.28125 618.707031 470.539062 C 619.59375 470.941406 620.640625 471.140625 621.6875 471.382812 C 622.574219 471.585938 623.460938 471.828125 624.144531 472.308594 C 627.046875 474.445312 630.390625 476.339844 633.128906 478.675781 C 634.941406 480.246094 636.511719 482.019531 637.398438 484.234375 C 637.640625 485.601562 637.839844 486.933594 637.960938 488.261719 C 638.082031 489.390625 638.363281 490.515625 638.605469 491.605469 C 638.40625 491.445312 638.203125 491.28125 638.042969 491.121094 C 637.800781 490.878906 637.558594 490.679688 637.316406 490.515625 C 636.308594 488.785156 635.261719 487.09375 634.578125 486.449219 C 631.4375 483.425781 627.289062 481.855469 622.9375 480.890625 C 618.707031 479.921875 614.277344 479.519531 610.328125 478.714844 C 605.414062 477.707031 599.007812 477.949219 593.613281 478.632812 C 591.921875 478.472656 590.226562 478.472656 588.738281 478.59375 C 587.972656 478.675781 586.523438 479.359375 586.523438 479.359375 C 586.199219 479.519531 586.039062 479.882812 586.121094 480.207031 C 586.199219 480.566406 586.523438 480.808594 586.84375 480.808594 C 586.84375 480.808594 589.542969 480.851562 590.871094 480.609375 C 591.757812 480.445312 592.683594 480.285156 593.652344 480.164062 C 595.585938 480.367188 597.519531 480.851562 599.089844 481.574219 C 602.273438 483.066406 605.132812 485.523438 608.113281 487.699219 C 611.253906 489.992188 614.519531 491.96875 618.425781 492.449219 C 621.96875 492.894531 625.515625 491.644531 628.816406 490.878906 C 631.476562 490.277344 633.972656 489.992188 636.148438 491.523438 C 636.632812 492.328125 637.074219 493.175781 637.519531 493.820312 C 638.164062 494.867188 638.726562 495.632812 639.050781 495.835938 C 639.089844 495.875 639.128906 495.875 639.210938 495.914062 C 638.484375 512.027344 640.820312 534.90625 645.617188 546.628906 C 645.695312 546.871094 645.898438 547.03125 646.140625 547.074219 C 646.179688 547.152344 646.21875 547.273438 646.261719 547.355469 C 646.421875 547.757812 646.863281 547.957031 647.265625 547.796875 C 647.667969 547.636719 647.871094 547.191406 647.710938 546.789062 C 645.253906 540.828125 643.480469 531.925781 642.394531 522.5 C 645.414062 515.855469 649.683594 514.121094 654.839844 511.464844 C 657.015625 510.335938 659.914062 509.449219 662.574219 508 C 668.375 504.777344 673.570312 499.582031 678.324219 494.949219 C 682.875 490.515625 686.582031 485.5625 689.160156 479.761719 C 690.207031 477.425781 691.171875 474.886719 692.582031 472.753906 C 692.90625 472.269531 693.269531 471.222656 693.269531 471.222656 C 693.390625 470.859375 693.269531 470.496094 692.945312 470.296875 C 692.625 470.09375 692.222656 470.175781 691.980469 470.417969 C 691.980469 470.417969 691.699219 470.699219 691.535156 470.820312 C 689.359375 472.308594 687.507812 474.242188 685.132812 475.410156 C 679.855469 477.988281 674.214844 480.367188 668.695312 482.5 C 660.640625 485.601562 655.445312 489.914062 650.570312 498.007812 C 649.039062 500.585938 648.433594 505.179688 647.628906 509.085938 C 647.144531 511.503906 646.582031 513.640625 645.574219 514.765625 C 644.285156 516.214844 643.761719 517.023438 642.3125 519.117188 C 642.230469 519.238281 642.152344 519.359375 642.070312 519.480469 C 640.984375 508.28125 640.941406 496.71875 642.070312 488.824219 C 643.398438 479.640625 643.117188 470.417969 645.171875 461.191406 C 645.695312 458.894531 646.261719 456.480469 646.945312 454.023438 C 647.023438 453.980469 647.144531 453.902344 647.226562 453.820312 C 650.691406 449.429688 654.316406 449.109375 658.625 449.347656 C 661.6875 449.511719 665.113281 449.953125 668.980469 449.550781 C 675.304688 448.90625 682.070312 445.5625 687.226562 442.097656 C 692.945312 438.273438 696.773438 432.472656 701.324219 427.476562 C 702.734375 425.90625 704.75 424.738281 706.640625 423.769531 C 707.164062 423.488281 707.769531 423.246094 708.332031 423.046875 C 708.695312 423.003906 709.261719 422.964844 709.582031 422.84375 C 709.945312 422.722656 710.144531 422.480469 710.226562 422.320312 C 710.347656 422.078125 710.308594 421.878906 710.226562 421.714844 C 710.144531 421.515625 710.027344 421.3125 709.703125 421.234375 C 709.621094 421.191406 709.460938 421.191406 709.261719 421.191406 C 709.019531 421.234375 708.574219 421.355469 708.574219 421.355469 C 708.414062 421.394531 708.253906 421.433594 708.050781 421.476562 C 707.929688 421.476562 707.808594 421.515625 707.769531 421.515625 C 703.296875 421.917969 698.746094 423.003906 694.316406 423.851562 C 678.605469 426.871094 666.199219 431.785156 654.074219 442.378906 C 653.390625 442.984375 650.691406 445.804688 648.355469 448.625 C 648.796875 447.175781 649.242188 445.722656 649.683594 444.234375 C 649.683594 444.234375 649.683594 444.234375 649.722656 444.234375 C 650.167969 444.195312 650.449219 443.789062 650.410156 443.386719 C 650.367188 443.066406 650.367188 442.703125 650.328125 442.300781 C 654.71875 428.886719 660.722656 414.828125 667.648438 403.105469 C 667.890625 402.863281 668.132812 402.664062 668.375 402.460938 C 668.453125 402.421875 668.535156 402.339844 668.617188 402.261719 L 668.65625 402.21875 C 669.261719 401.695312 669.863281 401.214844 670.429688 400.6875 C 670.832031 400.328125 671.273438 399.925781 671.675781 399.519531 C 674.175781 398.03125 676.875 398.03125 679.773438 398.433594 C 682.714844 398.796875 685.898438 399.519531 689.28125 399.640625 C 692.382812 399.722656 696.972656 398.515625 699.914062 397.628906 C 703.015625 396.703125 706.882812 394.929688 709.542969 392.996094 C 711.234375 391.789062 714.496094 387.074219 718.523438 383.488281 C 721.707031 380.628906 725.613281 378.613281 726.097656 378.292969 C 726.539062 378.011719 726.5 377.609375 726.5 377.566406 C 726.5 377.324219 726.378906 377.125 726.136719 376.964844 C 726.058594 376.921875 725.855469 376.800781 725.535156 376.882812 C 724.246094 377.207031 722.675781 377.285156 721.34375 377.445312 C 716.832031 377.96875 710.550781 377.769531 704.949219 378.332031 C 698.0625 379.019531 693.832031 379.460938 688.757812 382.199219 C 682.675781 385.464844 676.710938 392.671875 670.832031 398.273438 C 670.75 398.3125 670.710938 398.351562 670.671875 398.394531 C 672.039062 396.296875 673.410156 394.285156 674.820312 392.433594 C 678.121094 388.042969 681.628906 383.8125 685.210938 379.703125 C 685.332031 379.664062 685.453125 379.621094 685.574219 379.542969 C 685.816406 379.378906 685.9375 379.140625 685.9375 378.898438 C 693.914062 369.832031 702.292969 361.335938 710.066406 352.511719 C 711.917969 350.417969 713.773438 348.28125 715.542969 346.109375 C 715.625 346.066406 715.707031 345.988281 715.785156 345.945312 C 715.90625 345.867188 716.027344 345.785156 716.148438 345.707031 C 716.230469 345.707031 716.269531 345.707031 716.351562 345.707031 C 716.589844 345.664062 716.792969 345.542969 716.914062 345.34375 C 716.953125 345.34375 716.996094 345.34375 716.996094 345.300781 C 720.78125 344.417969 724.042969 342.078125 727.949219 341.195312 C 730.769531 340.550781 733.871094 340.507812 736.972656 340.386719 C 740.195312 340.265625 743.378906 340.105469 746.320312 339.179688 C 753.085938 337.042969 759.613281 335.59375 766.179688 332.53125 C 771.574219 329.996094 776.410156 326.449219 780.679688 322.503906 C 782.167969 321.132812 783.660156 319.160156 785.3125 318.152344 C 786.480469 317.425781 790.1875 313.800781 793.730469 312.070312 C 794.132812 311.867188 794.253906 311.425781 794.09375 311.023438 C 793.972656 310.742188 793.648438 310.578125 793.367188 310.578125 C 793.289062 310.578125 793.246094 310.578125 793.167969 310.578125 C 777.214844 311.949219 757.113281 316.136719 743.863281 325.96875 C 739.230469 329.429688 734.839844 333.058594 729.882812 336.078125 C 728.515625 336.921875 722.792969 339.90625 718.484375 342.402344 C 726.582031 332.128906 733.46875 321.054688 737.820312 308.082031 C 738.222656 307.4375 738.707031 306.792969 739.1875 306.1875 C 740.597656 304.417969 742.171875 302.765625 743.097656 301.074219 C 743.097656 301.03125 743.136719 300.992188 743.136719 300.992188 C 743.460938 300.550781 744.0625 299.90625 744.707031 299.382812 C 745.109375 299.019531 745.511719 298.738281 745.835938 298.695312 C 752.644531 297.691406 758.726562 298.574219 765.574219 295.113281 C 768.472656 293.660156 772.140625 288.789062 775.523438 285.402344 C 776.570312 284.355469 777.578125 283.429688 778.542969 282.867188 C 779.308594 282.421875 780.035156 282.140625 780.679688 282.382812 C 781.082031 282.503906 781.523438 282.300781 781.644531 281.898438 C 781.765625 281.535156 781.566406 281.09375 781.242188 280.933594 C 781.121094 280.851562 781 280.769531 780.839844 280.769531 C 768.3125 279.28125 756.027344 282.867188 748.210938 292.171875 C 747.609375 292.894531 744.910156 295.515625 743.984375 297.488281 C 743.941406 297.570312 743.941406 297.609375 743.902344 297.691406 C 743.175781 298.496094 742.371094 299.300781 741.808594 300.1875 C 741.726562 300.269531 741.6875 300.386719 741.605469 300.46875 C 741.566406 300.507812 741.527344 300.589844 741.527344 300.671875 C 740.839844 301.796875 739.875 302.964844 738.867188 304.132812 C 740.277344 298.050781 740.882812 291.203125 741.929688 285 C 741.96875 284.839844 741.929688 284.679688 741.847656 284.519531 L 741.847656 284.476562 C 741.886719 284.277344 741.929688 284.113281 742.007812 284.035156 C 746.882812 279.160156 751.3125 269.007812 749.984375 261.035156 C 749.460938 257.890625 748.414062 255.191406 747.648438 252.292969 C 746.761719 248.789062 744.304688 245.847656 742.976562 242.542969 C 741.886719 239.84375 741.003906 237.105469 739.996094 234.527344 C 739.230469 232.636719 738.988281 228.605469 739.472656 226.59375 C 739.59375 226.070312 739.632812 224.902344 739.632812 224.902344 C 739.632812 224.5 739.351562 224.175781 738.949219 224.136719 C 738.542969 224.09375 738.183594 224.335938 738.101562 224.738281 C 738.101562 224.738281 737.859375 225.707031 737.699219 226.191406 C 736.972656 228.363281 736.046875 230.660156 735.121094 232.957031 C 733.105469 237.992188 730.289062 244.800781 729.359375 250.480469 C 728.675781 254.789062 730.769531 259.945312 731.535156 263.730469 C 732.300781 267.476562 735 274.042969 738.222656 279.523438 C 738.867188 280.570312 739.472656 282.222656 739.753906 283.992188 Z M 690.125 473.921875 C 689.242188 475.613281 688.515625 477.425781 687.710938 479.15625 C 685.210938 484.796875 681.628906 489.589844 677.195312 493.859375 C 672.523438 498.414062 667.449219 503.488281 661.769531 506.671875 C 659.148438 508.121094 656.25 509.007812 654.074219 510.09375 C 651.898438 511.222656 649.886719 512.1875 648.074219 513.398438 C 648.476562 512.269531 648.839844 510.941406 649.121094 509.488281 C 649.886719 505.742188 650.410156 501.351562 651.859375 498.894531 C 656.492188 491.160156 661.488281 487.054688 669.21875 484.03125 C 674.777344 481.898438 680.457031 479.480469 685.777344 476.863281 C 687.386719 476.097656 688.757812 475.007812 690.125 473.921875 Z M 634.699219 489.148438 C 634.214844 488.421875 633.8125 487.816406 633.449219 487.496094 C 630.511719 484.675781 626.644531 483.265625 622.574219 482.339844 C 618.386719 481.375 613.953125 480.96875 610.007812 480.207031 C 606.582031 479.519531 602.472656 479.441406 598.484375 479.679688 C 598.929688 479.84375 599.332031 480.003906 599.734375 480.207031 C 602.996094 481.734375 605.9375 484.234375 609 486.488281 C 611.898438 488.625 614.960938 490.515625 618.585938 490.960938 C 621.96875 491.363281 625.3125 490.113281 628.457031 489.429688 C 630.628906 488.867188 632.765625 488.625 634.699219 489.148438 Z M 591.035156 426.792969 C 592.484375 429.089844 593.449219 431.664062 594.378906 434.285156 C 597.558594 443.265625 601.347656 451.96875 607.710938 459.136719 C 611.054688 462.925781 614.761719 466.871094 619.3125 469.046875 C 620.078125 469.410156 621.042969 469.570312 621.96875 469.8125 C 623.058594 470.054688 624.144531 470.375 624.992188 471.019531 C 627.890625 473.195312 631.316406 475.089844 634.054688 477.425781 C 634.902344 478.152344 635.664062 478.875 636.351562 479.679688 C 635.664062 477.023438 634.859375 474.363281 633.972656 471.867188 C 631.558594 465.140625 627.851562 459.058594 623.460938 453.417969 C 621.929688 451.484375 620.921875 449.027344 619.390625 447.132812 C 615.445312 442.097656 611.175781 438.3125 606.097656 434.527344 C 603.683594 432.753906 600.582031 431.464844 597.558594 430.175781 C 595.222656 429.167969 592.925781 428.121094 591.035156 426.792969 Z M 703.660156 423.769531 C 700.640625 424.253906 697.578125 424.980469 694.636719 425.542969 C 679.210938 428.523438 667.046875 433.316406 655.121094 443.75 C 654.519531 444.3125 652.058594 446.851562 649.886719 449.46875 C 651.941406 448.300781 654.074219 447.941406 656.371094 447.898438 C 659.957031 447.859375 663.984375 448.664062 668.777344 448.179688 C 674.859375 447.578125 681.34375 444.3125 686.339844 440.972656 C 691.9375 437.183594 695.683594 431.464844 700.15625 426.589844 C 701.125 425.503906 702.332031 424.578125 703.660156 423.769531 Z M 622.976562 367.699219 C 623.058594 367.78125 623.136719 367.859375 623.21875 367.941406 C 624.386719 369.230469 625.433594 370.761719 625.476562 372.574219 C 625.515625 374.464844 626.320312 376.5625 626.644531 378.414062 C 628.253906 387.515625 627.246094 396.78125 631.917969 405.199219 C 633.972656 408.90625 637.4375 411.929688 640.5 414.867188 C 645.050781 419.21875 647.429688 425.503906 648.878906 431.503906 C 649.121094 429.8125 649.402344 428.160156 649.601562 426.550781 C 651.335938 412.371094 653.109375 400.609375 646.097656 387.316406 C 642.472656 380.429688 635.183594 376.199219 629.339844 371.808594 C 627.410156 370.359375 625.03125 368.707031 623.378906 367.898438 C 623.21875 367.820312 623.097656 367.738281 622.976562 367.699219 Z M 722.070312 379.058594 C 721.867188 379.097656 721.667969 379.097656 721.464844 379.140625 C 716.953125 379.664062 710.671875 379.460938 705.070312 380.023438 C 698.425781 380.710938 694.355469 381.074219 689.441406 383.730469 C 684.324219 386.511719 679.289062 392.070312 674.335938 397.105469 C 675.421875 396.902344 676.550781 396.863281 677.71875 396.902344 C 681.265625 397.0625 685.089844 398.152344 689.28125 398.3125 C 692.261719 398.394531 696.613281 397.183594 699.429688 396.378906 C 702.371094 395.492188 706.078125 393.839844 708.574219 391.988281 C 710.226562 390.78125 713.449219 386.109375 717.4375 382.5625 C 718.929688 381.191406 720.621094 379.984375 722.070312 379.058594 Z M 659.3125 355.414062 C 659.3125 355.414062 659.351562 355.453125 659.351562 355.453125 C 660.722656 357.425781 661.726562 359.882812 662.855469 362.261719 C 663.902344 364.515625 665.070312 366.652344 666.804688 368.101562 C 667.851562 368.988281 669.097656 369.269531 670.429688 369.308594 C 671.878906 369.351562 673.410156 369.148438 674.820312 368.949219 C 676.953125 368.664062 678.886719 368.542969 680.175781 369.351562 C 680.457031 369.550781 680.742188 369.714844 681.023438 369.875 C 676.109375 361.292969 670.953125 359.441406 661.488281 355.855469 C 660.84375 355.695312 660.078125 355.535156 659.3125 355.414062 Z M 621.003906 365.242188 C 621.003906 365.28125 621.003906 365.28125 621.003906 365.324219 C 621.003906 365.363281 621.003906 365.363281 621.003906 365.402344 C 621.042969 365.363281 621.042969 365.324219 621.003906 365.242188 Z M 621.003906 365.242188 Z M 651.414062 300.46875 C 652.867188 302.160156 654.679688 304.699219 655.042969 307.035156 C 656.046875 313.441406 656.855469 320.167969 659.191406 326.167969 C 659.472656 326.933594 659.632812 327.941406 659.792969 328.988281 C 659.957031 329.875 660.078125 330.761719 660.398438 331.40625 C 661.6875 333.941406 662.613281 336.84375 663.824219 339.460938 C 666.078125 344.496094 670.027344 347.234375 673.449219 351.425781 C 674.417969 352.554688 676.59375 354.6875 677.597656 355.855469 C 679.25 357.828125 680.742188 358.835938 682.03125 359.761719 C 683.320312 360.691406 684.445312 361.574219 685.375 363.148438 C 685.375 362.824219 685.375 362.503906 685.332031 362.179688 C 684.96875 350.417969 682.472656 338.898438 678.242188 327.941406 C 674.777344 318.957031 667.972656 311.707031 660.4375 305.746094 C 657.980469 303.8125 655.324219 301.960938 652.382812 300.871094 C 652.101562 300.671875 651.777344 300.550781 651.414062 300.46875 Z M 790.105469 312.511719 C 775 314.125 756.914062 318.273438 744.707031 327.335938 C 740.035156 330.800781 735.605469 334.464844 730.609375 337.527344 C 729.84375 338.011719 727.75 339.140625 725.292969 340.46875 C 726.015625 340.1875 726.78125 339.945312 727.546875 339.785156 C 730.488281 339.097656 733.671875 339.058594 736.851562 338.9375 C 739.914062 338.816406 742.976562 338.65625 745.753906 337.808594 C 752.480469 335.714844 758.925781 334.265625 765.414062 331.203125 C 770.648438 328.746094 775.363281 325.28125 779.550781 321.457031 C 781.121094 320.003906 782.695312 317.992188 784.425781 316.945312 C 785.3125 316.421875 787.566406 314.324219 790.105469 312.511719 Z M 703.175781 262.804688 C 703.175781 263.167969 703.136719 263.53125 703.097656 263.851562 C 702.492188 268.726562 702.652344 273.359375 702.855469 278.273438 C 703.136719 285.160156 705.3125 293.097656 708.535156 299.21875 C 711.195312 304.253906 713.53125 309.53125 715.988281 314.6875 C 717.398438 317.710938 720.097656 321.898438 721.789062 325.683594 C 722.191406 324.15625 722.714844 322.664062 723.238281 321.214844 C 724.527344 317.789062 724.527344 311.222656 724.488281 307.519531 C 724.246094 296.078125 718.445312 286.210938 713.449219 276.261719 C 710.832031 271.144531 706.640625 267.15625 703.175781 262.804688 Z M 777.015625 282.101562 C 766.300781 281.699219 756.066406 285.242188 749.339844 293.257812 C 748.898438 293.78125 747.246094 295.394531 746.117188 296.964844 C 746.117188 296.964844 746.117188 296.964844 746.117188 297.003906 C 746.117188 297.046875 746.15625 297.125 746.15625 297.207031 C 752.5625 296.359375 758.363281 297.125 764.847656 293.863281 C 766.097656 293.21875 767.507812 291.847656 768.996094 290.277344 C 771.335938 287.78125 773.792969 284.757812 776.046875 282.867188 C 776.371094 282.585938 776.691406 282.34375 777.015625 282.101562 Z M 737.78125 230.703125 C 737.417969 231.667969 737.015625 232.59375 736.652344 233.5625 C 734.679688 238.476562 731.898438 245.164062 730.972656 250.761719 C 730.328125 254.910156 732.421875 259.867188 733.148438 263.449219 C 733.871094 267.035156 736.492188 273.441406 739.632812 278.757812 C 740.195312 279.683594 740.761719 281.175781 741.121094 282.824219 C 745.675781 278.152344 749.703125 268.765625 748.496094 261.355469 C 747.972656 258.253906 746.921875 255.59375 746.199219 252.734375 C 745.351562 249.3125 742.894531 246.410156 741.605469 243.1875 C 740.519531 240.488281 739.632812 237.75 738.625 235.171875 C 738.140625 234.125 737.859375 232.433594 737.78125 230.703125 Z M 737.78125 230.703125 " fill-opacity="1" fill-rule="evenodd"/>
  </g>
</svg>
