<svg xmlns="http://www.w3.org/2000/svg" xmlns:xlink="http://www.w3.org/1999/xlink" width="800" zoomAndPan="magnify" viewBox="585 224 209 324" height="600" preserveAspectRatio="xMidYMid meet" version="1.0">
  <defs>
    <clipPath id="fdeac4ba31">
      <path d="M 646 231 L 820 231 L 820 546.566406 L 646 546.566406 Z M 646 231 " clip-rule="nonzero"/>
    </clipPath>
  </defs>
  <g clip-path="url(#fdeac4ba31)">
    <path fill="#000000" d="M 802.582031 512.507812 C 803.15625 505.378906 805.699219 499.375 809.304688 493.371094 C 812.511719 487.808594 814.527344 481.832031 815.59375 475.519531 C 816.082031 473.753906 815.875 470.0625 818.5625 470.414062 C 819.605469 470.578125 819.9375 472.132812 819.714844 473.1875 C 819.277344 477.597656 818.925781 482.019531 818.378906 486.414062 C 817.433594 496.386719 811.132812 504.777344 809.875 514.671875 C 808.597656 523.648438 808.152344 532.785156 809.675781 541.753906 C 809.832031 543.585938 809.777344 546.519531 807.320312 546.441406 C 806.332031 546.425781 805.546875 545.820312 805.410156 544.863281 C 803.589844 532.160156 799.816406 519.929688 796.300781 507.648438 C 793.222656 496.910156 788.078125 487.105469 781.914062 477.828125 C 778.375 472.5 774.078125 467.835938 769.175781 463.761719 C 754.746094 451.769531 739.75 440.566406 723.230469 431.554688 C 703.507812 420.667969 681.003906 411.648438 670.101562 390.546875 C 664.6875 381.183594 661.246094 371.15625 659.714844 360.464844 C 656.554688 339.753906 654.304688 318.902344 650.609375 298.285156 C 649.769531 294.140625 648.941406 289.996094 648.121094 285.847656 C 645.523438 271.917969 647.316406 257.609375 650.011719 243.832031 C 654.484375 222.609375 656.480469 232.769531 662.699219 245.75 C 685.972656 292.78125 731.757812 321.695312 766.386719 359.476562 C 795.824219 390.695312 801.207031 436.054688 797.355469 477.097656 C 797.136719 489.023438 796.746094 501.765625 802.582031 512.507812 Z M 811.691406 495.984375 C 808.285156 501.949219 805.195312 508.4375 806.273438 515.53125 C 807.460938 508.113281 809.878906 501.691406 812.929688 495.472656 C 812.890625 495.238281 812.851562 495.003906 812.8125 494.765625 C 812.792969 494.773438 812.769531 494.777344 812.75 494.78125 C 812.808594 495.019531 811.984375 495.511719 811.691406 495.984375 Z M 654.507812 239.417969 C 651.1875 253.496094 649.007812 268.070312 651 282.453125 C 653.871094 297.289062 656.542969 312.140625 658.351562 327.144531 C 662.929688 360.441406 664.402344 394.265625 696.855469 413.300781 C 722.847656 427.296875 748.847656 441.402344 771.121094 461.03125 C 777.695312 466.480469 783.140625 472.914062 787.449219 480.296875 C 789.523438 483.304688 790.605469 487.023438 793.144531 489.621094 C 785.304688 434.292969 751.617188 401.246094 715.753906 362.207031 C 701.632812 346.089844 685.824219 330.6875 676.535156 311.101562 C 673.582031 304.707031 670.757812 298.242188 668.132812 291.707031 C 661.40625 274.894531 658.804688 256.882812 654.507812 239.417969 Z M 793.339844 479.980469 C 793.488281 479.960938 793.632812 479.941406 793.777344 479.921875 C 797.863281 438.992188 793.554688 393.367188 764.171875 362.007812 C 727.984375 323.117188 681.078125 292.765625 657.597656 243.5625 C 662.921875 273.976562 671.613281 305.558594 690.726562 330.523438 C 713.828125 359.53125 741.0625 385.027344 763.675781 414.433594 C 778.339844 433.734375 787.566406 456.566406 793.339844 479.980469 Z M 793.339844 479.980469 " fill-opacity="1" fill-rule="nonzero"/>
  </g>
</svg>
