<svg xmlns="http://www.w3.org/2000/svg" xmlns:xlink="http://www.w3.org/1999/xlink" width="1920" zoomAndPan="magnify" viewBox="0 0 1440 809.999993" height="1080" preserveAspectRatio="xMidYMid meet" version="1.0"><defs><g/><clipPath id="303600f817"><path d="M 406.109375 52.179688 L 1111.75 52.179688 L 1111.75 757.820312 L 406.109375 757.820312 Z M 406.109375 52.179688 " clip-rule="nonzero"/></clipPath><clipPath id="8e4921e4e1"><path d="M 758.929688 52.179688 C 564.070312 52.179688 406.109375 210.144531 406.109375 405 C 406.109375 599.855469 564.070312 757.820312 758.929688 757.820312 C 953.785156 757.820312 1111.75 599.855469 1111.75 405 C 1111.75 210.144531 953.785156 52.179688 758.929688 52.179688 Z M 758.929688 52.179688 " clip-rule="nonzero"/></clipPath></defs><g clip-path="url(#303600f817)"><g clip-path="url(#8e4921e4e1)"><path fill="#000000" d="M 406.109375 52.179688 L 1111.75 52.179688 L 1111.75 757.820312 L 406.109375 757.820312 Z M 406.109375 52.179688 " fill-opacity="1" fill-rule="nonzero"/></g></g><g fill="#ffffff" fill-opacity="1"><g transform="translate(510.305738, 546.78246)"><g><path d="M 67 0.921875 L 12.5 -70.015625 L 12.5 -19.328125 C 12.5 -14.929688 12.804688 -11.535156 13.421875 -9.140625 C 14.035156 -6.742188 14.941406 -4.988281 16.140625 -3.875 C 17.335938 -2.757812 18.785156 -1.96875 20.484375 -1.5 L 20.484375 0 L 6.015625 0 L 6.015625 -1.5 C 7.785156 -2.039062 9 -3.195312 9.65625 -4.96875 C 10.3125 -6.75 10.640625 -9.992188 10.640625 -14.703125 L 10.640625 -66.3125 C 10.640625 -71.09375 10.210938 -74.347656 9.359375 -76.078125 C 8.515625 -77.816406 6.9375 -78.957031 4.625 -79.5 L 4.625 -81 L 15.96875 -81 L 66.53125 -15.5 L 66.53125 -61.671875 C 66.53125 -66.078125 66.222656 -69.492188 65.609375 -71.921875 C 64.992188 -74.347656 64.109375 -76.097656 62.953125 -77.171875 C 61.796875 -78.253906 60.328125 -79.03125 58.546875 -79.5 L 58.546875 -81 L 73.140625 -81 L 73.140625 -79.5 C 71.359375 -78.957031 70.140625 -77.816406 69.484375 -76.078125 C 68.828125 -74.347656 68.5 -71.09375 68.5 -66.3125 L 68.5 0.921875 Z M 67 0.921875 "/></g></g></g><g fill="#ffffff" fill-opacity="1"><g transform="translate(588.057025, 546.78246)"><g><path d="M -1.96875 0 L -1.96875 -1.5 C -0.34375 -2.039062 1.238281 -3.101562 2.78125 -4.6875 C 4.320312 -6.269531 5.976562 -9.257812 7.75 -13.65625 L 30.546875 -70.125 C 31.242188 -71.976562 31.164062 -73.789062 30.3125 -75.5625 L 29.28125 -78 L 37.953125 -81.921875 L 66.421875 -13.546875 C 68.191406 -9.222656 69.789062 -6.269531 71.21875 -4.6875 C 72.644531 -3.101562 73.976562 -2.039062 75.21875 -1.5 L 75.21875 0 L 57.28125 0 L 57.28125 -1.5 C 59.050781 -2.039062 59.78125 -3.101562 59.46875 -4.6875 C 59.164062 -6.269531 58.085938 -9.222656 56.234375 -13.546875 L 49.1875 -30.546875 L 16.546875 -30.546875 L 9.71875 -13.65625 C 6.789062 -6.320312 7.253906 -2.269531 11.109375 -1.5 L 11.109375 0 Z M 17.234375 -32.28125 L 48.484375 -32.28125 L 32.625 -70.359375 Z M 17.234375 -32.28125 "/></g></g></g><g fill="#ffffff" fill-opacity="1"><g transform="translate(662.221577, 546.78246)"><g><path d="M 23.03125 0 L 23.03125 -1.5 C 24.800781 -2.039062 26.015625 -3.195312 26.671875 -4.96875 C 27.328125 -6.75 27.65625 -9.992188 27.65625 -14.703125 L 27.65625 -79.15625 L 21.984375 -79.15625 C 16.816406 -79.15625 12.882812 -78.34375 10.1875 -76.71875 C 7.488281 -75.101562 5.132812 -72.210938 3.125 -68.046875 L 1.84375 -68.28125 L 2.546875 -81 L 62.140625 -81 L 62.828125 -68.28125 L 61.5625 -68.046875 C 59.632812 -72.210938 57.316406 -75.101562 54.609375 -76.71875 C 51.910156 -78.34375 47.941406 -79.15625 42.703125 -79.15625 L 37.265625 -79.15625 L 37.265625 -14.703125 C 37.265625 -9.992188 37.59375 -6.75 38.25 -4.96875 C 38.90625 -3.195312 40.117188 -2.039062 41.890625 -1.5 L 41.890625 0 Z M 23.03125 0 "/></g></g></g><g fill="#ffffff" fill-opacity="1"><g transform="translate(727.014326, 546.78246)"><g><path d="M 41.78125 1.15625 C 37.613281 1.15625 33.582031 0.617188 29.6875 -0.453125 C 25.789062 -1.535156 22.296875 -3.269531 19.203125 -5.65625 C 16.117188 -8.050781 13.648438 -11.234375 11.796875 -15.203125 C 9.953125 -19.179688 9.03125 -24.066406 9.03125 -29.859375 L 9.03125 -66.3125 C 9.03125 -71.09375 8.703125 -74.347656 8.046875 -76.078125 C 7.390625 -77.816406 6.171875 -78.957031 4.390625 -79.5 L 4.390625 -81 L 23.140625 -81 L 23.140625 -79.5 C 21.441406 -78.957031 20.242188 -77.816406 19.546875 -76.078125 C 18.859375 -74.347656 18.515625 -71.09375 18.515625 -66.3125 L 18.515625 -30.546875 C 18.515625 -23.367188 19.707031 -17.640625 22.09375 -13.359375 C 24.488281 -9.078125 27.726562 -5.988281 31.8125 -4.09375 C 35.90625 -2.207031 40.460938 -1.265625 45.484375 -1.265625 C 47.953125 -1.265625 50.535156 -1.726562 53.234375 -2.65625 C 55.929688 -3.582031 58.457031 -5.164062 60.8125 -7.40625 C 63.164062 -9.644531 65.070312 -12.65625 66.53125 -16.4375 C 68 -20.21875 68.734375 -24.921875 68.734375 -30.546875 L 68.734375 -61.671875 C 68.734375 -66.078125 68.425781 -69.492188 67.8125 -71.921875 C 67.195312 -74.347656 66.304688 -76.097656 65.140625 -77.171875 C 63.984375 -78.253906 62.5625 -79.03125 60.875 -79.5 L 60.875 -81 L 75.21875 -81 L 75.21875 -79.5 C 73.519531 -78.957031 72.320312 -77.816406 71.625 -76.078125 C 70.9375 -74.347656 70.59375 -71.09375 70.59375 -66.3125 L 70.59375 -30.890625 C 70.59375 -23.179688 69.296875 -16.972656 66.703125 -12.265625 C 64.117188 -7.554688 60.664062 -4.140625 56.34375 -2.015625 C 52.03125 0.0976562 47.175781 1.15625 41.78125 1.15625 Z M 41.78125 1.15625 "/></g></g></g><g fill="#ffffff" fill-opacity="1"><g transform="translate(805.575522, 546.78246)"><g><path d="M 64.796875 0.8125 C 61.867188 0.8125 59.554688 0.0976562 57.859375 -1.328125 C 56.160156 -2.753906 54.675781 -4.835938 53.40625 -7.578125 C 52.132812 -10.316406 50.648438 -13.691406 48.953125 -17.703125 C 47.253906 -21.710938 45.828125 -25.222656 44.671875 -28.234375 C 43.515625 -31.242188 42.257812 -33.75 40.90625 -35.75 C 39.550781 -37.757812 37.832031 -39.265625 35.75 -40.265625 C 33.664062 -41.273438 30.890625 -41.78125 27.421875 -41.78125 L 20.015625 -41.78125 L 20.015625 -14.703125 C 20.015625 -9.992188 20.34375 -6.75 21 -4.96875 C 21.65625 -3.195312 22.867188 -2.039062 24.640625 -1.5 L 24.640625 0 L 5.90625 0 L 5.90625 -1.5 C 7.675781 -2.039062 8.890625 -3.195312 9.546875 -4.96875 C 10.203125 -6.75 10.53125 -9.992188 10.53125 -14.703125 L 10.53125 -66.3125 C 10.53125 -71.09375 10.203125 -74.347656 9.546875 -76.078125 C 8.890625 -77.816406 7.675781 -78.957031 5.90625 -79.5 L 5.90625 -81 L 28.703125 -81 C 36.566406 -81 42.695312 -80.207031 47.09375 -78.625 C 51.488281 -77.050781 54.59375 -74.910156 56.40625 -72.203125 C 58.21875 -69.503906 59.125 -66.421875 59.125 -62.953125 C 59.125 -57.546875 57.195312 -52.929688 53.34375 -49.109375 C 49.488281 -45.296875 43.78125 -42.96875 36.21875 -42.125 C 39.769531 -41.65625 42.660156 -40.863281 44.890625 -39.75 C 47.128906 -38.632812 48.984375 -37.128906 50.453125 -35.234375 C 51.921875 -33.347656 53.234375 -31.050781 54.390625 -28.34375 C 55.546875 -25.644531 56.816406 -22.523438 58.203125 -18.984375 C 60.054688 -14.347656 61.617188 -10.753906 62.890625 -8.203125 C 64.160156 -5.660156 65.335938 -3.867188 66.421875 -2.828125 C 67.503906 -1.785156 68.703125 -1.265625 70.015625 -1.265625 C 70.398438 -1.265625 70.726562 -1.265625 71 -1.265625 C 71.269531 -1.265625 71.554688 -1.304688 71.859375 -1.390625 L 71.859375 0 C 71.015625 0.3125 69.914062 0.523438 68.5625 0.640625 C 67.207031 0.753906 65.953125 0.8125 64.796875 0.8125 Z M 20.015625 -43.515625 L 29.734375 -43.515625 C 36.367188 -43.515625 41.285156 -45.078125 44.484375 -48.203125 C 47.691406 -51.328125 49.296875 -55.359375 49.296875 -60.296875 C 49.296875 -63.765625 48.503906 -66.925781 46.921875 -69.78125 C 45.335938 -72.632812 42.789062 -74.925781 39.28125 -76.65625 C 35.769531 -78.394531 31.160156 -79.265625 25.453125 -79.265625 C 24.609375 -79.265625 23.722656 -79.242188 22.796875 -79.203125 C 21.867188 -79.171875 20.941406 -79.113281 20.015625 -79.03125 Z M 20.015625 -43.515625 "/></g></g></g><g fill="#ffffff" fill-opacity="1"><g transform="translate(876.38475, 546.78246)"><g><path d="M -1.96875 0 L -1.96875 -1.5 C -0.34375 -2.039062 1.238281 -3.101562 2.78125 -4.6875 C 4.320312 -6.269531 5.976562 -9.257812 7.75 -13.65625 L 30.546875 -70.125 C 31.242188 -71.976562 31.164062 -73.789062 30.3125 -75.5625 L 29.28125 -78 L 37.953125 -81.921875 L 66.421875 -13.546875 C 68.191406 -9.222656 69.789062 -6.269531 71.21875 -4.6875 C 72.644531 -3.101562 73.976562 -2.039062 75.21875 -1.5 L 75.21875 0 L 57.28125 0 L 57.28125 -1.5 C 59.050781 -2.039062 59.78125 -3.101562 59.46875 -4.6875 C 59.164062 -6.269531 58.085938 -9.222656 56.234375 -13.546875 L 49.1875 -30.546875 L 16.546875 -30.546875 L 9.71875 -13.65625 C 6.789062 -6.320312 7.253906 -2.269531 11.109375 -1.5 L 11.109375 0 Z M 17.234375 -32.28125 L 48.484375 -32.28125 L 32.625 -70.359375 Z M 17.234375 -32.28125 "/></g></g></g><g fill="#ffffff" fill-opacity="1"><g transform="translate(950.54932, 546.78246)"><g><path d="M 5.90625 0 L 5.90625 -1.5 C 7.675781 -2.039062 8.890625 -3.195312 9.546875 -4.96875 C 10.203125 -6.75 10.53125 -9.992188 10.53125 -14.703125 L 10.53125 -66.3125 C 10.53125 -71.09375 10.203125 -74.347656 9.546875 -76.078125 C 8.890625 -77.816406 7.675781 -78.957031 5.90625 -79.5 L 5.90625 -81 L 24.640625 -81 L 24.640625 -79.5 C 22.867188 -78.957031 21.65625 -77.816406 21 -76.078125 C 20.34375 -74.347656 20.015625 -71.09375 20.015625 -66.3125 L 20.015625 -7.0625 C 20.015625 -3.582031 21.753906 -1.84375 25.234375 -1.84375 L 39 -1.84375 C 44.550781 -1.84375 48.8125 -2.671875 51.78125 -4.328125 C 54.75 -5.992188 57.238281 -8.988281 59.25 -13.3125 L 60.515625 -13.078125 L 59.703125 0 Z M 5.90625 0 "/></g></g></g><g fill="#ffffff" fill-opacity="1"><g transform="translate(559.457136, 411.81733)"><g><path d="M 8.90625 -0.265625 L 54.71875 -147.125 L 65.703125 -182.71875 C 65.878906 -182.71875 65.96875 -182.804688 65.96875 -182.984375 C 65.96875 -182.984375 65.96875 -183.070312 65.96875 -183.25 C 66.144531 -183.25 66.234375 -183.25 66.234375 -183.25 C 66.410156 -183.25 66.410156 -183.25 66.234375 -183.25 C 66.410156 -183.25 66.5 -183.25 66.5 -183.25 C 66.5 -183.25 66.582031 -183.25 66.75 -183.25 C 66.75 -183.25 66.835938 -183.25 67.015625 -183.25 C 67.015625 -183.070312 67.015625 -182.984375 67.015625 -182.984375 C 67.015625 -182.804688 67.101562 -182.71875 67.28125 -182.71875 L 124.078125 -0.265625 C 124.078125 -0.0859375 123.992188 0.175781 123.828125 0.53125 C 123.648438 0.695312 123.472656 0.78125 123.296875 0.78125 L 101.046875 0.78125 C 100.703125 0.78125 100.53125 0.609375 100.53125 0.265625 L 55.5 -144.5 L 10.203125 0.265625 C 10.203125 0.609375 10.03125 0.78125 9.6875 0.78125 C 9.507812 0.78125 9.421875 0.78125 9.421875 0.78125 C 8.898438 0.613281 8.726562 0.265625 8.90625 -0.265625 Z M 8.90625 -0.265625 "/></g></g></g><g fill="#ffffff" fill-opacity="1"><g transform="translate(692.432347, 411.81733)"><g><path d="M 8.90625 -182.46875 C 8.90625 -182.988281 9.164062 -183.25 9.6875 -183.25 L 30.890625 -183.25 C 31.234375 -183.25 31.40625 -182.988281 31.40625 -182.46875 L 31.40625 -17.546875 C 31.40625 -13.703125 30.398438 -10.296875 28.390625 -7.328125 C 26.390625 -4.359375 23.734375 -2.175781 20.421875 -0.78125 L 123.296875 -0.78125 C 123.816406 -0.78125 124.078125 -0.519531 124.078125 0 C 124.078125 0.519531 123.816406 0.78125 123.296875 0.78125 L 9.6875 0.78125 C 9.164062 0.78125 8.90625 0.519531 8.90625 0 Z M 8.90625 -182.46875 "/></g></g></g><g fill="#ffffff" fill-opacity="1"><g transform="translate(825.407558, 411.81733)"><g><path d="M 8.90625 -182.46875 C 8.90625 -182.988281 9.164062 -183.25 9.6875 -183.25 L 30.890625 -183.25 C 31.234375 -183.25 31.40625 -182.988281 31.40625 -182.46875 L 31.40625 -17.546875 C 31.40625 -13.703125 30.398438 -10.296875 28.390625 -7.328125 C 26.390625 -4.359375 23.734375 -2.175781 20.421875 -0.78125 L 123.296875 -0.78125 C 123.816406 -0.78125 124.078125 -0.519531 124.078125 0 C 124.078125 0.519531 123.816406 0.78125 123.296875 0.78125 L 9.6875 0.78125 C 9.164062 0.78125 8.90625 0.519531 8.90625 0 Z M 8.90625 -182.46875 "/></g></g></g></svg>