<svg xmlns="http://www.w3.org/2000/svg" xmlns:xlink="http://www.w3.org/1999/xlink" width="200" zoomAndPan="magnify" viewBox="0 0 150 149.999998" height="200" preserveAspectRatio="xMidYMid meet" version="1.0"><defs><g/><clipPath id="bead2e159b"><path d="M 29.945312 25.890625 L 128.164062 25.890625 L 128.164062 124.109375 L 29.945312 124.109375 Z M 29.945312 25.890625 " clip-rule="nonzero"/></clipPath><clipPath id="1eeaca2b68"><path d="M 79.054688 25.890625 C 51.933594 25.890625 29.945312 47.878906 29.945312 75 C 29.945312 102.121094 51.933594 124.109375 79.054688 124.109375 C 106.175781 124.109375 128.164062 102.121094 128.164062 75 C 128.164062 47.878906 106.175781 25.890625 79.054688 25.890625 Z M 79.054688 25.890625 " clip-rule="nonzero"/></clipPath></defs><g clip-path="url(#bead2e159b)"><g clip-path="url(#1eeaca2b68)"><path fill="#000000" d="M 29.945312 25.890625 L 128.164062 25.890625 L 128.164062 124.109375 L 29.945312 124.109375 Z M 29.945312 25.890625 " fill-opacity="1" fill-rule="nonzero"/></g></g><g fill="#ffffff" fill-opacity="1"><g transform="translate(44.040758, 97.510573)"><g><path d="M 9.328125 0.125 L 1.734375 -9.75 L 1.734375 -2.6875 C 1.734375 -2.070312 1.773438 -1.597656 1.859375 -1.265625 C 1.953125 -0.929688 2.082031 -0.6875 2.25 -0.53125 C 2.414062 -0.382812 2.613281 -0.273438 2.84375 -0.203125 L 2.84375 0 L 0.84375 0 L 0.84375 -0.203125 C 1.082031 -0.285156 1.25 -0.445312 1.34375 -0.6875 C 1.4375 -0.9375 1.484375 -1.390625 1.484375 -2.046875 L 1.484375 -9.234375 C 1.484375 -9.898438 1.421875 -10.351562 1.296875 -10.59375 C 1.179688 -10.832031 0.960938 -10.988281 0.640625 -11.0625 L 0.640625 -11.28125 L 2.21875 -11.28125 L 9.265625 -2.15625 L 9.265625 -8.59375 C 9.265625 -9.195312 9.21875 -9.664062 9.125 -10 C 9.039062 -10.34375 8.914062 -10.585938 8.75 -10.734375 C 8.59375 -10.890625 8.394531 -11 8.15625 -11.0625 L 8.15625 -11.28125 L 10.1875 -11.28125 L 10.1875 -11.0625 C 9.9375 -10.988281 9.765625 -10.832031 9.671875 -10.59375 C 9.578125 -10.351562 9.53125 -9.898438 9.53125 -9.234375 L 9.53125 0.125 Z M 9.328125 0.125 "/></g></g></g><g fill="#ffffff" fill-opacity="1"><g transform="translate(54.862937, 97.510573)"><g><path d="M -0.28125 0 L -0.28125 -0.203125 C -0.0507812 -0.285156 0.164062 -0.4375 0.375 -0.65625 C 0.59375 -0.875 0.828125 -1.289062 1.078125 -1.90625 L 4.25 -9.765625 C 4.34375 -10.023438 4.332031 -10.273438 4.21875 -10.515625 L 4.078125 -10.859375 L 5.28125 -11.40625 L 9.25 -1.890625 C 9.5 -1.285156 9.722656 -0.875 9.921875 -0.65625 C 10.117188 -0.4375 10.300781 -0.285156 10.46875 -0.203125 L 10.46875 0 L 7.96875 0 L 7.96875 -0.203125 C 8.21875 -0.285156 8.320312 -0.4375 8.28125 -0.65625 C 8.238281 -0.875 8.085938 -1.285156 7.828125 -1.890625 L 6.84375 -4.25 L 2.296875 -4.25 L 1.359375 -1.90625 C 0.941406 -0.882812 1.003906 -0.316406 1.546875 -0.203125 L 1.546875 0 Z M 2.40625 -4.5 L 6.75 -4.5 L 4.546875 -9.796875 Z M 2.40625 -4.5 "/></g></g></g><g fill="#ffffff" fill-opacity="1"><g transform="translate(65.185878, 97.510573)"><g><path d="M 3.203125 0 L 3.203125 -0.203125 C 3.453125 -0.285156 3.617188 -0.445312 3.703125 -0.6875 C 3.796875 -0.9375 3.84375 -1.390625 3.84375 -2.046875 L 3.84375 -11.015625 L 3.0625 -11.015625 C 2.34375 -11.015625 1.796875 -10.898438 1.421875 -10.671875 C 1.046875 -10.453125 0.71875 -10.050781 0.4375 -9.46875 L 0.25 -9.5 L 0.359375 -11.28125 L 8.65625 -11.28125 L 8.75 -9.5 L 8.5625 -9.46875 C 8.300781 -10.050781 7.984375 -10.453125 7.609375 -10.671875 C 7.234375 -10.898438 6.675781 -11.015625 5.9375 -11.015625 L 5.1875 -11.015625 L 5.1875 -2.046875 C 5.1875 -1.390625 5.234375 -0.9375 5.328125 -0.6875 C 5.421875 -0.445312 5.585938 -0.285156 5.828125 -0.203125 L 5.828125 0 Z M 3.203125 0 "/></g></g></g><g fill="#ffffff" fill-opacity="1"><g transform="translate(74.204361, 97.510573)"><g><path d="M 5.8125 0.15625 C 5.238281 0.15625 4.675781 0.0820312 4.125 -0.0625 C 3.582031 -0.21875 3.097656 -0.457031 2.671875 -0.78125 C 2.242188 -1.113281 1.898438 -1.554688 1.640625 -2.109375 C 1.378906 -2.671875 1.25 -3.351562 1.25 -4.15625 L 1.25 -9.234375 C 1.25 -9.898438 1.203125 -10.351562 1.109375 -10.59375 C 1.023438 -10.832031 0.859375 -10.988281 0.609375 -11.0625 L 0.609375 -11.28125 L 3.21875 -11.28125 L 3.21875 -11.0625 C 2.988281 -10.988281 2.820312 -10.832031 2.71875 -10.59375 C 2.625 -10.351562 2.578125 -9.898438 2.578125 -9.234375 L 2.578125 -4.25 C 2.578125 -3.25 2.742188 -2.453125 3.078125 -1.859375 C 3.410156 -1.265625 3.859375 -0.832031 4.421875 -0.5625 C 4.992188 -0.300781 5.628906 -0.171875 6.328125 -0.171875 C 6.671875 -0.171875 7.03125 -0.234375 7.40625 -0.359375 C 7.78125 -0.492188 8.128906 -0.71875 8.453125 -1.03125 C 8.785156 -1.34375 9.050781 -1.757812 9.25 -2.28125 C 9.457031 -2.8125 9.5625 -3.46875 9.5625 -4.25 L 9.5625 -8.59375 C 9.5625 -9.195312 9.519531 -9.664062 9.4375 -10 C 9.351562 -10.34375 9.226562 -10.585938 9.0625 -10.734375 C 8.90625 -10.890625 8.707031 -11 8.46875 -11.0625 L 8.46875 -11.28125 L 10.46875 -11.28125 L 10.46875 -11.0625 C 10.226562 -10.988281 10.0625 -10.832031 9.96875 -10.59375 C 9.875 -10.351562 9.828125 -9.898438 9.828125 -9.234375 L 9.828125 -4.296875 C 9.828125 -3.222656 9.644531 -2.359375 9.28125 -1.703125 C 8.925781 -1.046875 8.445312 -0.570312 7.84375 -0.28125 C 7.238281 0.0078125 6.5625 0.15625 5.8125 0.15625 Z M 5.8125 0.15625 "/></g></g></g><g fill="#ffffff" fill-opacity="1"><g transform="translate(85.139271, 97.510573)"><g><path d="M 9.015625 0.109375 C 8.609375 0.109375 8.285156 0.0078125 8.046875 -0.1875 C 7.816406 -0.382812 7.613281 -0.671875 7.4375 -1.046875 C 7.257812 -1.429688 7.050781 -1.90625 6.8125 -2.46875 C 6.570312 -3.019531 6.375 -3.503906 6.21875 -3.921875 C 6.0625 -4.347656 5.882812 -4.695312 5.6875 -4.96875 C 5.5 -5.25 5.257812 -5.457031 4.96875 -5.59375 C 4.6875 -5.738281 4.300781 -5.8125 3.8125 -5.8125 L 2.78125 -5.8125 L 2.78125 -2.046875 C 2.78125 -1.390625 2.828125 -0.9375 2.921875 -0.6875 C 3.015625 -0.445312 3.1875 -0.285156 3.4375 -0.203125 L 3.4375 0 L 0.828125 0 L 0.828125 -0.203125 C 1.066406 -0.285156 1.234375 -0.445312 1.328125 -0.6875 C 1.421875 -0.9375 1.46875 -1.390625 1.46875 -2.046875 L 1.46875 -9.234375 C 1.46875 -9.898438 1.421875 -10.351562 1.328125 -10.59375 C 1.234375 -10.832031 1.066406 -10.988281 0.828125 -11.0625 L 0.828125 -11.28125 L 4 -11.28125 C 5.09375 -11.28125 5.941406 -11.164062 6.546875 -10.9375 C 7.160156 -10.71875 7.59375 -10.421875 7.84375 -10.046875 C 8.101562 -9.671875 8.234375 -9.242188 8.234375 -8.765625 C 8.234375 -8.015625 7.960938 -7.375 7.421875 -6.84375 C 6.890625 -6.3125 6.097656 -5.984375 5.046875 -5.859375 C 5.535156 -5.796875 5.9375 -5.6875 6.25 -5.53125 C 6.5625 -5.375 6.816406 -5.164062 7.015625 -4.90625 C 7.222656 -4.644531 7.40625 -4.328125 7.5625 -3.953125 C 7.726562 -3.578125 7.910156 -3.140625 8.109375 -2.640625 C 8.359375 -1.992188 8.570312 -1.492188 8.75 -1.140625 C 8.925781 -0.785156 9.085938 -0.535156 9.234375 -0.390625 C 9.390625 -0.242188 9.5625 -0.171875 9.75 -0.171875 C 9.800781 -0.171875 9.84375 -0.171875 9.875 -0.171875 C 9.914062 -0.171875 9.957031 -0.175781 10 -0.1875 L 10 0 C 9.882812 0.0390625 9.734375 0.0664062 9.546875 0.078125 C 9.359375 0.0976562 9.179688 0.109375 9.015625 0.109375 Z M 2.78125 -6.0625 L 4.140625 -6.0625 C 5.066406 -6.0625 5.75 -6.273438 6.1875 -6.703125 C 6.632812 -7.140625 6.859375 -7.703125 6.859375 -8.390625 C 6.859375 -8.878906 6.75 -9.320312 6.53125 -9.71875 C 6.3125 -10.113281 5.957031 -10.429688 5.46875 -10.671875 C 4.976562 -10.910156 4.335938 -11.03125 3.546875 -11.03125 C 3.421875 -11.03125 3.296875 -11.023438 3.171875 -11.015625 C 3.046875 -11.015625 2.914062 -11.007812 2.78125 -11 Z M 2.78125 -6.0625 "/></g></g></g><g fill="#ffffff" fill-opacity="1"><g transform="translate(94.995186, 97.510573)"><g><path d="M -0.28125 0 L -0.28125 -0.203125 C -0.0507812 -0.285156 0.164062 -0.4375 0.375 -0.65625 C 0.59375 -0.875 0.828125 -1.289062 1.078125 -1.90625 L 4.25 -9.765625 C 4.34375 -10.023438 4.332031 -10.273438 4.21875 -10.515625 L 4.078125 -10.859375 L 5.28125 -11.40625 L 9.25 -1.890625 C 9.5 -1.285156 9.722656 -0.875 9.921875 -0.65625 C 10.117188 -0.4375 10.300781 -0.285156 10.46875 -0.203125 L 10.46875 0 L 7.96875 0 L 7.96875 -0.203125 C 8.21875 -0.285156 8.320312 -0.4375 8.28125 -0.65625 C 8.238281 -0.875 8.085938 -1.285156 7.828125 -1.890625 L 6.84375 -4.25 L 2.296875 -4.25 L 1.359375 -1.90625 C 0.941406 -0.882812 1.003906 -0.316406 1.546875 -0.203125 L 1.546875 0 Z M 2.40625 -4.5 L 6.75 -4.5 L 4.546875 -9.796875 Z M 2.40625 -4.5 "/></g></g></g><g fill="#ffffff" fill-opacity="1"><g transform="translate(105.31813, 97.510573)"><g><path d="M 0.828125 0 L 0.828125 -0.203125 C 1.066406 -0.285156 1.234375 -0.445312 1.328125 -0.6875 C 1.421875 -0.9375 1.46875 -1.390625 1.46875 -2.046875 L 1.46875 -9.234375 C 1.46875 -9.898438 1.421875 -10.351562 1.328125 -10.59375 C 1.234375 -10.832031 1.066406 -10.988281 0.828125 -11.0625 L 0.828125 -11.28125 L 3.4375 -11.28125 L 3.4375 -11.0625 C 3.1875 -10.988281 3.015625 -10.832031 2.921875 -10.59375 C 2.828125 -10.351562 2.78125 -9.898438 2.78125 -9.234375 L 2.78125 -0.984375 C 2.78125 -0.492188 3.023438 -0.25 3.515625 -0.25 L 5.421875 -0.25 C 6.203125 -0.25 6.796875 -0.363281 7.203125 -0.59375 C 7.617188 -0.832031 7.96875 -1.253906 8.25 -1.859375 L 8.421875 -1.828125 L 8.3125 0 Z M 0.828125 0 "/></g></g></g><g fill="#ffffff" fill-opacity="1"><g transform="translate(51.6993, 74.315783)"><g><path d="M 1.234375 -0.03125 L 7.609375 -20.484375 L 9.140625 -25.4375 C 9.171875 -25.4375 9.1875 -25.445312 9.1875 -25.46875 C 9.1875 -25.46875 9.1875 -25.476562 9.1875 -25.5 C 9.207031 -25.5 9.21875 -25.5 9.21875 -25.5 C 9.238281 -25.5 9.238281 -25.5 9.21875 -25.5 C 9.238281 -25.5 9.25 -25.5 9.25 -25.5 C 9.25 -25.5 9.265625 -25.5 9.296875 -25.5 C 9.296875 -25.5 9.304688 -25.5 9.328125 -25.5 C 9.328125 -25.476562 9.328125 -25.46875 9.328125 -25.46875 C 9.328125 -25.445312 9.335938 -25.4375 9.359375 -25.4375 L 17.265625 -0.03125 C 17.265625 -0.0078125 17.253906 0.0234375 17.234375 0.078125 C 17.210938 0.0976562 17.1875 0.109375 17.15625 0.109375 L 14.0625 0.109375 C 14.007812 0.109375 13.984375 0.0820312 13.984375 0.03125 L 7.71875 -20.109375 L 1.421875 0.03125 C 1.421875 0.0820312 1.394531 0.109375 1.34375 0.109375 C 1.320312 0.109375 1.3125 0.109375 1.3125 0.109375 C 1.238281 0.0859375 1.210938 0.0390625 1.234375 -0.03125 Z M 1.234375 -0.03125 "/></g></g></g><g fill="#ffffff" fill-opacity="1"><g transform="translate(70.208077, 74.315783)"><g><path d="M 1.234375 -25.390625 C 1.234375 -25.460938 1.269531 -25.5 1.34375 -25.5 L 4.296875 -25.5 C 4.347656 -25.5 4.375 -25.460938 4.375 -25.390625 L 4.375 -2.4375 C 4.375 -1.90625 4.234375 -1.429688 3.953125 -1.015625 C 3.671875 -0.609375 3.300781 -0.304688 2.84375 -0.109375 L 17.15625 -0.109375 C 17.226562 -0.109375 17.265625 -0.0703125 17.265625 0 C 17.265625 0.0703125 17.226562 0.109375 17.15625 0.109375 L 1.34375 0.109375 C 1.269531 0.109375 1.234375 0.0703125 1.234375 0 Z M 1.234375 -25.390625 "/></g></g></g><g fill="#ffffff" fill-opacity="1"><g transform="translate(88.716855, 74.315783)"><g><path d="M 1.234375 -25.390625 C 1.234375 -25.460938 1.269531 -25.5 1.34375 -25.5 L 4.296875 -25.5 C 4.347656 -25.5 4.375 -25.460938 4.375 -25.390625 L 4.375 -2.4375 C 4.375 -1.90625 4.234375 -1.429688 3.953125 -1.015625 C 3.671875 -0.609375 3.300781 -0.304688 2.84375 -0.109375 L 17.15625 -0.109375 C 17.226562 -0.109375 17.265625 -0.0703125 17.265625 0 C 17.265625 0.0703125 17.226562 0.109375 17.15625 0.109375 L 1.34375 0.109375 C 1.269531 0.109375 1.234375 0.0703125 1.234375 0 Z M 1.234375 -25.390625 "/></g></g></g></svg>