<?xml version="1.0" encoding="UTF-8"?>
<svg xmlns="http://www.w3.org/2000/svg" xmlns:xlink="http://www.w3.org/1999/xlink" width="32px" height="32px" viewBox="0 0 32 32" version="1.1">
<defs>
<clipPath id="clip1">
  <path d="M 6.363281 5.496094 L 27.367188 5.496094 L 27.367188 26.503906 L 6.363281 26.503906 Z M 6.363281 5.496094 "/>
</clipPath>
<clipPath id="clip2">
  <path d="M 16.863281 5.496094 C 11.0625 5.496094 6.363281 10.199219 6.363281 16 C 6.363281 21.800781 11.0625 26.503906 16.863281 26.503906 C 22.664062 26.503906 27.367188 21.800781 27.367188 16 C 27.367188 10.199219 22.664062 5.496094 16.863281 5.496094 Z M 16.863281 5.496094 "/>
</clipPath>
</defs>
<g id="surface1">
<g clip-path="url(#clip1)" clip-rule="nonzero">
<g clip-path="url(#clip2)" clip-rule="nonzero">
<path style=" stroke:none;fill-rule:nonzero;fill:rgb(100%,100%,100%);fill-opacity:1;" d="M 6.363281 5.496094 L 27.367188 5.496094 L 27.367188 26.503906 L 6.363281 26.503906 Z M 6.363281 5.496094 "/>
</g>
</g>
<path style=" stroke:none;fill-rule:nonzero;fill:rgb(0%,0%,0%);fill-opacity:1;" d="M 11.371094 21.152344 L 9.75 19.042969 L 9.75 20.550781 C 9.75 20.679688 9.757812 20.78125 9.777344 20.851562 C 9.792969 20.925781 9.820312 20.976562 9.855469 21.011719 C 9.890625 21.042969 9.933594 21.066406 9.984375 21.082031 L 9.984375 21.125 L 9.554688 21.125 L 9.554688 21.082031 C 9.605469 21.066406 9.644531 21.03125 9.664062 20.980469 C 9.683594 20.925781 9.691406 20.828125 9.691406 20.691406 L 9.691406 19.152344 C 9.691406 19.011719 9.679688 18.914062 9.652344 18.863281 C 9.628906 18.8125 9.582031 18.777344 9.511719 18.761719 L 9.511719 18.714844 L 9.851562 18.714844 L 11.355469 20.667969 L 11.355469 19.289062 C 11.355469 19.160156 11.347656 19.058594 11.328125 18.988281 C 11.308594 18.914062 11.28125 18.863281 11.246094 18.828125 C 11.214844 18.800781 11.171875 18.777344 11.121094 18.761719 L 11.121094 18.714844 L 11.554688 18.714844 L 11.554688 18.761719 C 11.5 18.777344 11.464844 18.8125 11.441406 18.863281 C 11.425781 18.914062 11.417969 19.011719 11.417969 19.152344 L 11.417969 21.152344 Z M 11.371094 21.152344 "/>
<path style=" stroke:none;fill-rule:nonzero;fill:rgb(0%,0%,0%);fill-opacity:1;" d="M 11.632812 21.125 L 11.632812 21.082031 C 11.679688 21.066406 11.726562 21.035156 11.769531 20.988281 C 11.816406 20.941406 11.867188 20.851562 11.921875 20.71875 L 12.601562 19.039062 C 12.621094 18.984375 12.617188 18.929688 12.59375 18.875 L 12.5625 18.804688 L 12.820312 18.691406 L 13.667969 20.722656 C 13.722656 20.851562 13.769531 20.941406 13.8125 20.988281 C 13.851562 21.035156 13.890625 21.066406 13.925781 21.082031 L 13.925781 21.125 L 13.394531 21.125 L 13.394531 21.082031 C 13.449219 21.066406 13.46875 21.035156 13.460938 20.988281 C 13.453125 20.941406 13.417969 20.851562 13.363281 20.722656 L 13.152344 20.214844 L 12.183594 20.214844 L 11.980469 20.71875 C 11.894531 20.9375 11.90625 21.058594 12.019531 21.082031 L 12.019531 21.125 Z M 12.203125 20.167969 L 13.132812 20.167969 L 12.660156 19.035156 Z M 12.203125 20.167969 "/>
<path style=" stroke:none;fill-rule:nonzero;fill:rgb(0%,0%,0%);fill-opacity:1;" d="M 14.585938 21.125 L 14.585938 21.082031 C 14.636719 21.066406 14.671875 21.03125 14.691406 20.980469 C 14.710938 20.925781 14.722656 20.828125 14.722656 20.691406 L 14.722656 18.769531 L 14.550781 18.769531 C 14.398438 18.769531 14.28125 18.792969 14.203125 18.84375 C 14.121094 18.890625 14.050781 18.980469 13.992188 19.101562 L 13.957031 19.097656 L 13.976562 18.714844 L 15.75 18.714844 L 15.769531 19.097656 L 15.730469 19.101562 C 15.671875 18.980469 15.605469 18.890625 15.523438 18.84375 C 15.441406 18.792969 15.324219 18.769531 15.167969 18.769531 L 15.007812 18.769531 L 15.007812 20.691406 C 15.007812 20.828125 15.015625 20.925781 15.035156 20.980469 C 15.054688 21.03125 15.09375 21.066406 15.144531 21.082031 L 15.144531 21.125 Z M 14.585938 21.125 "/>
<path style=" stroke:none;fill-rule:nonzero;fill:rgb(0%,0%,0%);fill-opacity:1;" d="M 17.070312 21.160156 C 16.945312 21.160156 16.824219 21.144531 16.710938 21.113281 C 16.59375 21.078125 16.492188 21.027344 16.398438 20.957031 C 16.304688 20.886719 16.234375 20.792969 16.175781 20.671875 C 16.125 20.554688 16.097656 20.410156 16.097656 20.238281 L 16.097656 19.152344 C 16.097656 19.011719 16.085938 18.914062 16.066406 18.863281 C 16.046875 18.8125 16.011719 18.777344 15.957031 18.761719 L 15.957031 18.714844 L 16.519531 18.714844 L 16.519531 18.761719 C 16.464844 18.777344 16.429688 18.8125 16.40625 18.863281 C 16.386719 18.914062 16.378906 19.011719 16.378906 19.152344 L 16.378906 20.214844 C 16.378906 20.429688 16.414062 20.601562 16.484375 20.730469 C 16.554688 20.855469 16.652344 20.949219 16.773438 21.007812 C 16.894531 21.0625 17.03125 21.089844 17.179688 21.089844 C 17.253906 21.089844 17.332031 21.078125 17.410156 21.050781 C 17.492188 21.023438 17.566406 20.972656 17.632812 20.90625 C 17.707031 20.839844 17.761719 20.75 17.808594 20.640625 C 17.851562 20.527344 17.875 20.386719 17.875 20.214844 L 17.875 19.289062 C 17.875 19.160156 17.863281 19.058594 17.84375 18.988281 C 17.824219 18.914062 17.800781 18.863281 17.765625 18.828125 C 17.730469 18.800781 17.6875 18.777344 17.636719 18.761719 L 17.636719 18.714844 L 18.0625 18.714844 L 18.0625 18.761719 C 18.015625 18.777344 17.980469 18.8125 17.957031 18.863281 C 17.9375 18.914062 17.925781 19.011719 17.925781 19.152344 L 17.925781 20.207031 C 17.925781 20.4375 17.886719 20.621094 17.8125 20.761719 C 17.734375 20.902344 17.632812 21.003906 17.503906 21.066406 C 17.375 21.128906 17.230469 21.160156 17.070312 21.160156 Z M 17.070312 21.160156 "/>
<path style=" stroke:none;fill-rule:nonzero;fill:rgb(0%,0%,0%);fill-opacity:1;" d="M 20.09375 21.148438 C 20.007812 21.148438 19.9375 21.128906 19.886719 21.085938 C 19.835938 21.042969 19.792969 20.984375 19.757812 20.902344 C 19.71875 20.820312 19.675781 20.71875 19.621094 20.601562 C 19.570312 20.480469 19.527344 20.375 19.492188 20.285156 C 19.460938 20.199219 19.421875 20.125 19.382812 20.0625 C 19.34375 20.003906 19.292969 19.960938 19.230469 19.929688 C 19.167969 19.898438 19.085938 19.882812 18.984375 19.882812 L 18.761719 19.882812 L 18.761719 20.691406 C 18.761719 20.828125 18.769531 20.925781 18.789062 20.980469 C 18.808594 21.03125 18.847656 21.066406 18.898438 21.082031 L 18.898438 21.125 L 18.34375 21.125 L 18.34375 21.082031 C 18.394531 21.066406 18.429688 21.03125 18.449219 20.980469 C 18.46875 20.925781 18.480469 20.828125 18.480469 20.691406 L 18.480469 19.152344 C 18.480469 19.011719 18.46875 18.914062 18.449219 18.863281 C 18.429688 18.8125 18.394531 18.777344 18.34375 18.761719 L 18.34375 18.714844 L 19.019531 18.714844 C 19.253906 18.714844 19.4375 18.738281 19.566406 18.785156 C 19.695312 18.832031 19.789062 18.898438 19.84375 18.980469 C 19.898438 19.058594 19.925781 19.152344 19.925781 19.253906 C 19.925781 19.414062 19.867188 19.550781 19.753906 19.667969 C 19.640625 19.78125 19.46875 19.847656 19.242188 19.875 C 19.351562 19.886719 19.4375 19.910156 19.503906 19.941406 C 19.570312 19.976562 19.625 20.023438 19.667969 20.078125 C 19.710938 20.136719 19.75 20.203125 19.78125 20.285156 C 19.816406 20.363281 19.855469 20.457031 19.898438 20.5625 C 19.953125 20.703125 19.996094 20.808594 20.035156 20.882812 C 20.074219 20.960938 20.109375 21.011719 20.140625 21.042969 C 20.171875 21.074219 20.210938 21.089844 20.25 21.089844 C 20.261719 21.089844 20.269531 21.089844 20.277344 21.089844 C 20.285156 21.089844 20.292969 21.089844 20.304688 21.085938 L 20.304688 21.125 C 20.277344 21.136719 20.246094 21.140625 20.207031 21.144531 C 20.167969 21.148438 20.128906 21.148438 20.09375 21.148438 Z M 18.761719 19.832031 L 19.050781 19.832031 C 19.246094 19.832031 19.394531 19.785156 19.488281 19.691406 C 19.585938 19.601562 19.632812 19.480469 19.632812 19.332031 C 19.632812 19.230469 19.609375 19.136719 19.5625 19.050781 C 19.515625 18.964844 19.441406 18.898438 19.335938 18.847656 C 19.230469 18.792969 19.09375 18.765625 18.921875 18.765625 C 18.898438 18.765625 18.871094 18.769531 18.84375 18.769531 C 18.816406 18.769531 18.789062 18.773438 18.761719 18.773438 Z M 18.761719 19.832031 "/>
<path style=" stroke:none;fill-rule:nonzero;fill:rgb(0%,0%,0%);fill-opacity:1;" d="M 20.214844 21.125 L 20.214844 21.082031 C 20.261719 21.066406 20.308594 21.035156 20.355469 20.988281 C 20.402344 20.941406 20.449219 20.851562 20.503906 20.71875 L 21.183594 19.039062 C 21.203125 18.984375 21.203125 18.929688 21.175781 18.875 L 21.144531 18.804688 L 21.40625 18.691406 L 22.25 20.722656 C 22.304688 20.851562 22.351562 20.941406 22.394531 20.988281 C 22.4375 21.035156 22.476562 21.066406 22.511719 21.082031 L 22.511719 21.125 L 21.976562 21.125 L 21.976562 21.082031 C 22.03125 21.066406 22.050781 21.035156 22.042969 20.988281 C 22.035156 20.941406 22.003906 20.851562 21.949219 20.722656 L 21.738281 20.214844 L 20.769531 20.214844 L 20.5625 20.71875 C 20.476562 20.9375 20.492188 21.058594 20.605469 21.082031 L 20.605469 21.125 Z M 20.789062 20.167969 L 21.71875 20.167969 L 21.246094 19.035156 Z M 20.789062 20.167969 "/>
<path style=" stroke:none;fill-rule:nonzero;fill:rgb(0%,0%,0%);fill-opacity:1;" d="M 22.660156 21.125 L 22.660156 21.082031 C 22.710938 21.066406 22.746094 21.03125 22.765625 20.980469 C 22.785156 20.925781 22.796875 20.828125 22.796875 20.691406 L 22.796875 19.152344 C 22.796875 19.011719 22.785156 18.914062 22.765625 18.863281 C 22.746094 18.8125 22.710938 18.777344 22.660156 18.761719 L 22.660156 18.714844 L 23.214844 18.714844 L 23.214844 18.761719 C 23.164062 18.777344 23.125 18.8125 23.105469 18.863281 C 23.085938 18.914062 23.078125 19.011719 23.078125 19.152344 L 23.078125 20.917969 C 23.078125 21.019531 23.128906 21.070312 23.230469 21.070312 L 23.640625 21.070312 C 23.804688 21.070312 23.933594 21.046875 24.023438 20.996094 C 24.109375 20.949219 24.183594 20.859375 24.246094 20.730469 L 24.28125 20.738281 L 24.257812 21.125 Z M 22.660156 21.125 "/>
<path style=" stroke:none;fill-rule:nonzero;fill:rgb(0%,0%,0%);fill-opacity:1;" d="M 11.324219 15.039062 L 12.691406 10.664062 L 13.015625 9.605469 C 13.023438 9.605469 13.023438 9.605469 13.023438 9.597656 C 13.023438 9.597656 13.023438 9.597656 13.023438 9.589844 C 13.03125 9.589844 13.035156 9.589844 13.035156 9.589844 C 13.039062 9.589844 13.039062 9.589844 13.035156 9.589844 C 13.039062 9.589844 13.039062 9.589844 13.039062 9.589844 C 13.039062 9.589844 13.042969 9.589844 13.046875 9.589844 C 13.046875 9.589844 13.050781 9.589844 13.058594 9.589844 C 13.058594 9.597656 13.058594 9.597656 13.058594 9.597656 C 13.058594 9.605469 13.058594 9.605469 13.0625 9.605469 L 14.753906 15.039062 C 14.753906 15.042969 14.75 15.050781 14.746094 15.0625 C 14.742188 15.066406 14.738281 15.070312 14.730469 15.070312 L 14.066406 15.070312 C 14.058594 15.070312 14.054688 15.0625 14.054688 15.050781 L 12.714844 10.742188 L 11.363281 15.050781 C 11.363281 15.0625 11.359375 15.070312 11.351562 15.070312 C 11.34375 15.070312 11.339844 15.070312 11.339844 15.070312 C 11.324219 15.0625 11.320312 15.054688 11.324219 15.039062 Z M 11.324219 15.039062 "/>
<path style=" stroke:none;fill-rule:nonzero;fill:rgb(0%,0%,0%);fill-opacity:1;" d="M 15.28125 9.613281 C 15.28125 9.597656 15.292969 9.589844 15.308594 9.589844 L 15.9375 9.589844 C 15.949219 9.589844 15.957031 9.597656 15.957031 9.613281 L 15.957031 14.523438 C 15.957031 14.636719 15.925781 14.742188 15.867188 14.828125 C 15.804688 14.914062 15.726562 14.980469 15.625 15.023438 L 18.6875 15.023438 C 18.703125 15.023438 18.710938 15.03125 18.710938 15.046875 C 18.710938 15.0625 18.703125 15.070312 18.6875 15.070312 L 15.308594 15.070312 C 15.292969 15.070312 15.28125 15.0625 15.28125 15.046875 Z M 15.28125 9.613281 "/>
<path style=" stroke:none;fill-rule:nonzero;fill:rgb(0%,0%,0%);fill-opacity:1;" d="M 19.242188 9.613281 C 19.242188 9.597656 19.25 9.589844 19.269531 9.589844 L 19.898438 9.589844 C 19.910156 9.589844 19.914062 9.597656 19.914062 9.613281 L 19.914062 14.523438 C 19.914062 14.636719 19.882812 14.742188 19.824219 14.828125 C 19.765625 14.914062 19.683594 14.980469 19.585938 15.023438 L 22.648438 15.023438 C 22.664062 15.023438 22.671875 15.03125 22.671875 15.046875 C 22.671875 15.0625 22.664062 15.070312 22.648438 15.070312 L 19.269531 15.070312 C 19.25 15.070312 19.242188 15.0625 19.242188 15.046875 Z M 19.242188 9.613281 "/>
</g>
</svg>
