<?xml version="1.0" encoding="UTF-8"?>
<svg xmlns="http://www.w3.org/2000/svg" xmlns:xlink="http://www.w3.org/1999/xlink" width="32px" height="32px" viewBox="0 0 32 32" version="1.1">
<defs>
<clipPath id="clip1">
  <path d="M 9.023438 2.0625 L 24.707031 2.0625 L 24.707031 29.9375 L 9.023438 29.9375 Z M 9.023438 2.0625 "/>
</clipPath>
<clipPath id="clip2">
  <path d="M 16.863281 2.0625 C 12.535156 2.0625 9.023438 8.300781 9.023438 16 C 9.023438 23.699219 12.535156 29.9375 16.863281 29.9375 C 21.195312 29.9375 24.707031 23.699219 24.707031 16 C 24.707031 8.300781 21.195312 2.0625 16.863281 2.0625 Z M 16.863281 2.0625 "/>
</clipPath>
</defs>
<g id="surface1">
<g clip-path="url(#clip1)" clip-rule="nonzero">
<g clip-path="url(#clip2)" clip-rule="nonzero">
<path style=" stroke:none;fill-rule:nonzero;fill:rgb(0%,0%,0%);fill-opacity:1;" d="M 9.023438 2.0625 L 24.707031 2.0625 L 24.707031 29.9375 L 9.023438 29.9375 Z M 9.023438 2.0625 "/>
</g>
</g>
<path style=" stroke:none;fill-rule:nonzero;fill:rgb(100%,100%,100%);fill-opacity:1;" d="M 12.828125 21.636719 L 11.617188 18.835938 L 11.617188 20.835938 C 11.617188 21.011719 11.625 21.144531 11.636719 21.238281 C 11.652344 21.335938 11.671875 21.402344 11.699219 21.449219 C 11.726562 21.492188 11.757812 21.523438 11.796875 21.542969 L 11.796875 21.601562 L 11.472656 21.601562 L 11.472656 21.542969 C 11.511719 21.519531 11.539062 21.476562 11.554688 21.40625 C 11.570312 21.335938 11.578125 21.207031 11.578125 21.019531 L 11.578125 18.980469 C 11.578125 18.792969 11.566406 18.664062 11.546875 18.597656 C 11.53125 18.527344 11.496094 18.480469 11.441406 18.460938 L 11.441406 18.402344 L 11.695312 18.402344 L 12.820312 20.988281 L 12.820312 19.164062 C 12.820312 18.992188 12.8125 18.855469 12.796875 18.761719 C 12.785156 18.664062 12.765625 18.59375 12.738281 18.550781 C 12.714844 18.511719 12.679688 18.480469 12.640625 18.460938 L 12.640625 18.402344 L 12.964844 18.402344 L 12.964844 18.460938 C 12.925781 18.480469 12.898438 18.527344 12.882812 18.597656 C 12.871094 18.664062 12.863281 18.792969 12.863281 18.980469 L 12.863281 21.636719 Z M 12.828125 21.636719 "/>
<path style=" stroke:none;fill-rule:nonzero;fill:rgb(100%,100%,100%);fill-opacity:1;" d="M 13.023438 21.601562 L 13.023438 21.542969 C 13.058594 21.519531 13.09375 21.480469 13.128906 21.417969 C 13.164062 21.355469 13.199219 21.234375 13.238281 21.0625 L 13.746094 18.832031 C 13.761719 18.757812 13.761719 18.6875 13.742188 18.617188 L 13.71875 18.519531 L 13.910156 18.363281 L 14.542969 21.066406 C 14.582031 21.238281 14.617188 21.355469 14.652344 21.417969 C 14.683594 21.480469 14.710938 21.519531 14.738281 21.542969 L 14.738281 21.601562 L 14.339844 21.601562 L 14.339844 21.542969 C 14.378906 21.519531 14.394531 21.480469 14.390625 21.417969 C 14.382812 21.355469 14.359375 21.238281 14.316406 21.066406 L 14.160156 20.394531 L 13.4375 20.394531 L 13.285156 21.0625 C 13.21875 21.351562 13.230469 21.511719 13.316406 21.542969 L 13.316406 21.601562 Z M 13.449219 20.324219 L 14.144531 20.324219 L 13.792969 18.820312 Z M 13.449219 20.324219 "/>
<path style=" stroke:none;fill-rule:nonzero;fill:rgb(100%,100%,100%);fill-opacity:1;" d="M 15.226562 21.601562 L 15.226562 21.542969 C 15.265625 21.519531 15.292969 21.476562 15.308594 21.40625 C 15.324219 21.335938 15.332031 21.207031 15.332031 21.019531 L 15.332031 18.472656 L 15.203125 18.472656 C 15.089844 18.472656 15.003906 18.507812 14.941406 18.570312 C 14.882812 18.632812 14.832031 18.75 14.785156 18.914062 L 14.757812 18.902344 L 14.773438 18.402344 L 16.097656 18.402344 L 16.113281 18.902344 L 16.085938 18.914062 C 16.042969 18.75 15.988281 18.632812 15.929688 18.570312 C 15.871094 18.507812 15.78125 18.472656 15.664062 18.472656 L 15.542969 18.472656 L 15.542969 21.019531 C 15.542969 21.207031 15.550781 21.335938 15.566406 21.40625 C 15.582031 21.476562 15.609375 21.519531 15.648438 21.542969 L 15.648438 21.601562 Z M 15.226562 21.601562 "/>
<path style=" stroke:none;fill-rule:nonzero;fill:rgb(100%,100%,100%);fill-opacity:1;" d="M 17.085938 21.648438 C 16.992188 21.648438 16.902344 21.625 16.816406 21.582031 C 16.730469 21.539062 16.652344 21.472656 16.582031 21.378906 C 16.515625 21.285156 16.460938 21.15625 16.417969 21 C 16.378906 20.84375 16.355469 20.652344 16.355469 20.421875 L 16.355469 18.980469 C 16.355469 18.792969 16.347656 18.664062 16.335938 18.597656 C 16.320312 18.527344 16.292969 18.480469 16.253906 18.460938 L 16.253906 18.402344 L 16.671875 18.402344 L 16.671875 18.460938 C 16.632812 18.480469 16.605469 18.527344 16.589844 18.597656 C 16.574219 18.664062 16.566406 18.792969 16.566406 18.980469 L 16.566406 20.394531 C 16.566406 20.679688 16.59375 20.90625 16.648438 21.074219 C 16.699219 21.242188 16.773438 21.363281 16.863281 21.441406 C 16.953125 21.515625 17.054688 21.550781 17.167969 21.550781 C 17.222656 21.550781 17.277344 21.53125 17.339844 21.496094 C 17.398438 21.460938 17.453125 21.398438 17.507812 21.308594 C 17.558594 21.21875 17.601562 21.101562 17.632812 20.953125 C 17.667969 20.800781 17.683594 20.617188 17.683594 20.394531 L 17.683594 19.164062 C 17.683594 18.992188 17.675781 18.855469 17.664062 18.761719 C 17.648438 18.664062 17.628906 18.59375 17.601562 18.550781 C 17.578125 18.511719 17.546875 18.480469 17.507812 18.460938 L 17.507812 18.402344 L 17.828125 18.402344 L 17.828125 18.460938 C 17.789062 18.480469 17.761719 18.527344 17.746094 18.597656 C 17.730469 18.664062 17.726562 18.792969 17.726562 18.980469 L 17.726562 20.382812 C 17.726562 20.683594 17.695312 20.929688 17.636719 21.117188 C 17.582031 21.304688 17.503906 21.4375 17.40625 21.523438 C 17.3125 21.605469 17.203125 21.648438 17.085938 21.648438 Z M 17.085938 21.648438 "/>
<path style=" stroke:none;fill-rule:nonzero;fill:rgb(100%,100%,100%);fill-opacity:1;" d="M 19.339844 21.632812 C 19.277344 21.632812 19.226562 21.605469 19.1875 21.546875 C 19.148438 21.492188 19.117188 21.410156 19.089844 21.300781 C 19.058594 21.195312 19.027344 21.058594 18.988281 20.902344 C 18.953125 20.742188 18.921875 20.605469 18.894531 20.484375 C 18.867188 20.367188 18.839844 20.269531 18.8125 20.1875 C 18.78125 20.109375 18.742188 20.050781 18.695312 20.011719 C 18.648438 19.972656 18.589844 19.949219 18.511719 19.949219 L 18.347656 19.949219 L 18.347656 21.019531 C 18.347656 21.207031 18.355469 21.335938 18.367188 21.40625 C 18.382812 21.476562 18.410156 21.519531 18.449219 21.542969 L 18.449219 21.601562 L 18.03125 21.601562 L 18.03125 21.542969 C 18.070312 21.519531 18.097656 21.476562 18.113281 21.40625 C 18.128906 21.335938 18.136719 21.207031 18.136719 21.019531 L 18.136719 18.980469 C 18.136719 18.792969 18.128906 18.664062 18.113281 18.597656 C 18.097656 18.527344 18.070312 18.480469 18.03125 18.460938 L 18.03125 18.402344 L 18.539062 18.402344 C 18.714844 18.402344 18.851562 18.433594 18.949219 18.496094 C 19.046875 18.558594 19.113281 18.640625 19.15625 18.75 C 19.195312 18.855469 19.214844 18.976562 19.214844 19.113281 C 19.214844 19.328125 19.171875 19.511719 19.085938 19.660156 C 19 19.8125 18.875 19.902344 18.707031 19.9375 C 18.785156 19.957031 18.851562 19.988281 18.898438 20.03125 C 18.949219 20.074219 18.988281 20.132812 19.023438 20.210938 C 19.054688 20.285156 19.085938 20.375 19.109375 20.480469 C 19.136719 20.589844 19.164062 20.710938 19.195312 20.851562 C 19.234375 21.035156 19.269531 21.175781 19.300781 21.277344 C 19.328125 21.378906 19.355469 21.449219 19.378906 21.488281 C 19.402344 21.53125 19.429688 21.550781 19.457031 21.550781 C 19.464844 21.550781 19.472656 21.550781 19.480469 21.550781 C 19.484375 21.550781 19.492188 21.550781 19.5 21.546875 L 19.5 21.601562 C 19.480469 21.613281 19.457031 21.621094 19.425781 21.625 C 19.394531 21.632812 19.367188 21.632812 19.339844 21.632812 Z M 18.347656 19.882812 L 18.5625 19.882812 C 18.710938 19.882812 18.820312 19.820312 18.890625 19.695312 C 18.960938 19.574219 18.996094 19.414062 18.996094 19.21875 C 18.996094 19.082031 18.980469 18.957031 18.945312 18.84375 C 18.910156 18.730469 18.851562 18.640625 18.773438 18.574219 C 18.695312 18.503906 18.59375 18.46875 18.46875 18.46875 C 18.449219 18.46875 18.429688 18.472656 18.410156 18.472656 C 18.386719 18.472656 18.367188 18.476562 18.347656 18.480469 Z M 18.347656 19.882812 "/>
<path style=" stroke:none;fill-rule:nonzero;fill:rgb(100%,100%,100%);fill-opacity:1;" d="M 19.429688 21.601562 L 19.429688 21.542969 C 19.46875 21.519531 19.503906 21.480469 19.535156 21.417969 C 19.570312 21.355469 19.609375 21.234375 19.648438 21.0625 L 20.152344 18.832031 C 20.167969 18.757812 20.167969 18.6875 20.148438 18.617188 L 20.125 18.519531 L 20.320312 18.363281 L 20.953125 21.066406 C 20.992188 21.238281 21.027344 21.355469 21.058594 21.417969 C 21.089844 21.480469 21.117188 21.519531 21.148438 21.542969 L 21.148438 21.601562 L 20.75 21.601562 L 20.75 21.542969 C 20.789062 21.519531 20.804688 21.480469 20.796875 21.417969 C 20.789062 21.355469 20.765625 21.238281 20.726562 21.066406 L 20.566406 20.394531 L 19.84375 20.394531 L 19.691406 21.0625 C 19.625 21.351562 19.636719 21.511719 19.722656 21.542969 L 19.722656 21.601562 Z M 19.859375 20.324219 L 20.550781 20.324219 L 20.199219 18.820312 Z M 19.859375 20.324219 "/>
<path style=" stroke:none;fill-rule:nonzero;fill:rgb(100%,100%,100%);fill-opacity:1;" d="M 21.253906 21.601562 L 21.253906 21.542969 C 21.292969 21.519531 21.320312 21.476562 21.335938 21.40625 C 21.351562 21.335938 21.355469 21.207031 21.355469 21.019531 L 21.355469 18.980469 C 21.355469 18.792969 21.351562 18.664062 21.335938 18.597656 C 21.320312 18.527344 21.292969 18.480469 21.253906 18.460938 L 21.253906 18.402344 L 21.671875 18.402344 L 21.671875 18.460938 C 21.632812 18.480469 21.605469 18.527344 21.589844 18.597656 C 21.574219 18.664062 21.566406 18.792969 21.566406 18.980469 L 21.566406 21.324219 C 21.566406 21.460938 21.605469 21.527344 21.683594 21.527344 L 21.988281 21.527344 C 22.113281 21.527344 22.207031 21.496094 22.273438 21.429688 C 22.339844 21.363281 22.394531 21.246094 22.441406 21.074219 L 22.46875 21.085938 L 22.449219 21.601562 Z M 21.253906 21.601562 "/>
<path style=" stroke:none;fill-rule:nonzero;fill:rgb(100%,100%,100%);fill-opacity:1;" d="M 12.628906 16.257812 L 13.648438 10.457031 L 13.890625 9.050781 C 13.894531 9.050781 13.898438 9.046875 13.898438 9.039062 C 13.898438 9.039062 13.898438 9.035156 13.898438 9.03125 C 13.902344 9.03125 13.902344 9.03125 13.902344 9.03125 C 13.90625 9.03125 13.90625 9.03125 13.902344 9.03125 C 13.90625 9.03125 13.910156 9.03125 13.910156 9.03125 C 13.910156 9.03125 13.910156 9.03125 13.914062 9.03125 C 13.914062 9.03125 13.917969 9.03125 13.921875 9.03125 C 13.921875 9.035156 13.921875 9.039062 13.921875 9.039062 C 13.921875 9.046875 13.921875 9.050781 13.925781 9.050781 L 15.191406 16.257812 C 15.191406 16.265625 15.1875 16.277344 15.183594 16.289062 C 15.179688 16.296875 15.175781 16.300781 15.171875 16.300781 L 14.679688 16.300781 C 14.671875 16.300781 14.667969 16.292969 14.667969 16.28125 L 13.664062 10.5625 L 12.660156 16.28125 C 12.660156 16.292969 12.65625 16.300781 12.648438 16.300781 C 12.644531 16.300781 12.640625 16.300781 12.640625 16.300781 C 12.628906 16.292969 12.625 16.28125 12.628906 16.257812 Z M 12.628906 16.257812 "/>
<path style=" stroke:none;fill-rule:nonzero;fill:rgb(100%,100%,100%);fill-opacity:1;" d="M 15.585938 9.0625 C 15.585938 9.039062 15.589844 9.03125 15.601562 9.03125 L 16.074219 9.03125 C 16.082031 9.03125 16.085938 9.039062 16.085938 9.0625 L 16.085938 15.574219 C 16.085938 15.726562 16.0625 15.863281 16.019531 15.980469 C 15.972656 16.097656 15.914062 16.183594 15.839844 16.238281 L 18.128906 16.238281 C 18.140625 16.238281 18.144531 16.25 18.144531 16.269531 C 18.144531 16.289062 18.140625 16.300781 18.128906 16.300781 L 15.601562 16.300781 C 15.589844 16.300781 15.585938 16.289062 15.585938 16.269531 Z M 15.585938 9.0625 "/>
<path style=" stroke:none;fill-rule:nonzero;fill:rgb(100%,100%,100%);fill-opacity:1;" d="M 18.539062 9.0625 C 18.539062 9.039062 18.546875 9.03125 18.558594 9.03125 L 19.027344 9.03125 C 19.035156 9.03125 19.039062 9.039062 19.039062 9.0625 L 19.039062 15.574219 C 19.039062 15.726562 19.019531 15.863281 18.972656 15.980469 C 18.929688 16.097656 18.871094 16.183594 18.796875 16.238281 L 21.082031 16.238281 C 21.09375 16.238281 21.101562 16.25 21.101562 16.269531 C 21.101562 16.289062 21.09375 16.300781 21.082031 16.300781 L 18.558594 16.300781 C 18.546875 16.300781 18.539062 16.289062 18.539062 16.269531 Z M 18.539062 9.0625 "/>
</g>
</svg>
